<svg width="50" height="50" viewBox="0 0 50 50" fill="none" xmlns="http://www.w3.org/2000/svg">
<path d="M45.8335 35.8331C45.8335 37.7081 45.3127 39.4789 44.3752 40.9789C43.4944 42.4592 42.244 43.6849 40.7465 44.536C39.249 45.387 37.5559 45.834 35.8335 45.8331C32.1877 45.8331 29.0002 43.8748 27.2918 40.9789C26.3752 39.4789 25.8335 37.7081 25.8335 35.8331C25.8869 33.2163 26.964 30.7247 28.8335 28.8929C30.703 27.0611 33.2161 26.0352 35.8335 26.0352C38.4509 26.0352 40.9639 27.0611 42.8335 28.8929C44.703 30.7247 45.7801 33.2163 45.8335 35.8331V35.8331Z" stroke="#A3CEFD" stroke-width="3" stroke-miterlimit="10" stroke-linecap="round" stroke-linejoin="round"/>
<path d="M31.9375 35.8333L34.3958 38.2917L39.7292 33.375" stroke="#A3CEFD" stroke-width="3" stroke-linecap="round" stroke-linejoin="round"/>
<path d="M45.8332 18.1043C45.8332 22.2085 44.7707 25.8335 43.104 28.9793C42.1707 27.9868 41.0442 27.1957 39.7938 26.6547C38.5434 26.1137 37.1956 25.8342 35.8332 25.8335C30.3123 25.8335 25.8332 30.3127 25.8332 35.8335C25.8332 38.396 26.8123 40.7293 28.3957 42.5002C27.6248 42.8543 26.9165 43.146 26.2915 43.3543C25.5832 43.6043 24.4165 43.6043 23.7082 43.3543C17.6665 41.2918 4.1665 32.6877 4.1665 18.1043C4.1665 11.6668 9.354 6.4585 15.7498 6.4585C19.5207 6.4585 22.8957 8.29183 24.9998 11.1043C26.0746 9.66436 27.4701 8.49473 29.0758 7.68828C30.6815 6.88183 32.453 6.46076 34.2498 6.4585C40.6457 6.4585 45.8332 11.6668 45.8332 18.1043Z" stroke="#A3CEFD" stroke-width="3" stroke-linecap="round" stroke-linejoin="round"/>
</svg>
