<?xml version="1.0" standalone="no"?>
<!DOCTYPE svg PUBLIC "-//W3C//DTD SVG 20010904//EN"
 "http://www.w3.org/TR/2001/REC-SVG-20010904/DTD/svg10.dtd">
<svg version="1.0" xmlns="http://www.w3.org/2000/svg"
 width="3294.000000pt" height="520.000000pt" viewBox="0 0 3294.000000 520.000000"
 preserveAspectRatio="xMidYMid meet">

<g transform="translate(0.000000,520.000000) scale(0.100000,-0.100000)"
fill="#000000" stroke="none">
<path d="M1830 5169 c-84 -14 -170 -59 -233 -123 -87 -86 -137 -205 -137 -323
0 -29 -1 -53 -3 -53 -2 0 -22 9 -44 20 -118 56 -280 53 -403 -10 -88 -45 -176
-149 -216 -255 -17 -47 -19 -91 -22 -641 l-3 -592 -52 20 c-148 56 -367 74
-525 43 -101 -21 -128 -32 -148 -63 -29 -45 -20 -88 49 -232 70 -148 118 -274
171 -450 81 -272 113 -489 126 -840 11 -289 19 -366 55 -510 120 -476 484
-879 945 -1044 910 -328 1882 257 2019 1214 6 41 15 194 21 340 13 351 45 568
126 840 53 176 101 302 171 450 69 144 78 187 49 232 -20 31 -47 42 -148 63
-158 31 -377 13 -525 -43 l-52 -20 -3 592 c-3 550 -5 594 -22 641 -40 106
-128 210 -216 255 -123 63 -285 66 -403 10 -22 -11 -42 -20 -44 -20 -2 0 -3
24 -3 53 0 220 -163 412 -380 446 -73 12 -74 12 -150 0z m175 -228 c49 -22 90
-62 119 -116 21 -40 21 -43 24 -835 l3 -794 21 -23 c35 -38 119 -28 180 20 1
1 5 261 8 577 5 536 6 577 24 610 48 90 119 134 217 135 56 0 73 -4 115 -30
27 -17 62 -51 79 -75 l30 -45 5 -700 c3 -385 7 -701 8 -702 1 -2 20 -14 42
-29 34 -23 45 -25 90 -19 28 4 57 13 64 21 20 19 122 69 181 88 94 29 257 46
299 30 14 -5 13 -11 -5 -46 -32 -62 -103 -250 -139 -368 -102 -330 -145 -605
-161 -1025 -9 -258 -10 -263 -36 -380 -108 -477 -509 -865 -1003 -972 -119
-25 -401 -25 -520 0 -246 53 -468 172 -644 345 -206 202 -324 428 -380 727 -4
17 -10 143 -15 280 -13 344 -41 560 -104 820 -47 192 -139 462 -196 573 l-21
42 26 6 c39 10 191 -3 254 -22 30 -9 104 -36 164 -60 127 -52 176 -56 221 -20
l30 24 5 694 5 693 30 45 c17 24 52 58 79 75 89 55 215 37 287 -42 67 -71 64
-38 67 -681 l3 -583 32 -20 c25 -16 43 -19 86 -15 99 9 90 -73 93 840 3 798 3
801 24 841 48 88 122 135 214 135 32 0 72 -8 95 -19z"/>
<path d="M5176 4610 c-241 -28 -443 -99 -621 -220 -263 -179 -417 -438 -444
-747 -25 -284 46 -514 212 -689 93 -98 184 -162 352 -245 140 -69 232 -94 515
-139 545 -88 634 -103 745 -130 304 -74 448 -186 519 -400 48 -144 52 -377 10
-533 -79 -296 -323 -521 -658 -607 -242 -62 -613 -49 -846 30 -342 115 -586
395 -641 735 -6 39 -14 194 -17 345 -7 261 -8 277 -29 311 -27 43 -59 59 -120
59 -39 0 -50 -5 -83 -38 -66 -66 -70 -110 -40 -412 22 -217 25 -437 10 -745
-20 -405 -14 -488 38 -546 56 -63 167 -44 206 35 18 38 19 50 8 240 -6 110
-10 201 -8 203 2 2 62 -54 132 -125 180 -181 297 -251 534 -321 167 -50 276
-65 485 -65 301 0 501 42 725 154 294 148 517 401 600 680 90 303 57 655 -81
867 -81 124 -185 211 -358 297 -177 89 -312 122 -816 201 -469 73 -578 99
-725 175 -188 99 -298 232 -346 420 -22 88 -15 307 14 395 83 259 303 454 596
529 166 43 435 46 608 7 311 -71 542 -268 633 -541 45 -134 55 -213 61 -450 6
-245 15 -293 61 -330 32 -25 118 -28 151 -4 12 8 32 34 45 57 21 40 22 50 17
237 -6 260 -6 749 0 990 4 175 3 199 -13 232 -34 68 -129 88 -183 37 -34 -31
-44 -99 -44 -285 l0 -166 -71 92 c-84 109 -167 194 -233 239 -102 70 -251 125
-428 157 -102 18 -365 26 -472 14z"/>
<path d="M7223 4579 c-17 -5 -43 -23 -57 -40 -21 -25 -26 -41 -26 -89 0 -52 4
-62 30 -88 38 -39 99 -52 239 -52 87 0 118 4 152 20 55 25 93 25 146 1 51 -23
69 -56 83 -148 7 -46 10 -562 8 -1593 -3 -1443 -4 -1527 -21 -1565 -19 -43
-50 -80 -82 -98 -12 -7 -98 -14 -225 -17 -222 -6 -246 -12 -289 -66 -23 -29
-29 -101 -11 -135 31 -57 154 -68 395 -34 199 28 553 28 715 0 145 -25 337
-26 392 -2 21 9 43 27 49 41 16 33 4 89 -26 125 -46 54 -89 64 -310 70 -223 7
-239 11 -270 76 -29 62 -35 192 -35 760 0 596 10 855 35 982 65 319 367 584
739 649 68 12 127 15 231 11 248 -10 395 -65 525 -196 81 -81 119 -147 166
-287 40 -120 45 -250 42 -1079 -3 -706 -4 -763 -21 -800 -10 -22 -28 -50 -40
-63 -44 -48 -65 -52 -246 -52 -205 0 -263 -10 -308 -55 -28 -28 -33 -40 -33
-80 0 -25 5 -55 10 -66 29 -53 145 -70 315 -46 303 44 604 48 820 11 55 -9
154 -17 220 -18 111 -1 124 1 170 25 48 24 50 27 53 70 3 60 -25 104 -86 132
-41 18 -73 22 -242 27 -117 3 -203 10 -215 17 -32 18 -63 55 -82 98 -17 37
-18 101 -24 900 -6 907 -6 908 -54 1071 -104 357 -404 576 -855 625 -264 29
-527 -20 -758 -141 -123 -64 -209 -134 -286 -232 -34 -42 -64 -77 -68 -77 -5
-1 -8 298 -8 663 l0 663 -23 34 c-37 54 -64 63 -160 49 -78 -12 -497 -9 -602
4 -22 3 -54 1 -72 -5z"/>
<path d="M14765 4581 c-72 -19 -105 -54 -105 -112 0 -25 8 -47 25 -68 37 -43
105 -56 237 -46 56 4 147 8 200 9 114 1 138 -11 178 -90 l25 -49 0 -1585 c0
-1528 -1 -1586 -19 -1620 -24 -46 -54 -78 -91 -98 -25 -14 -64 -17 -245 -17
-187 0 -219 -2 -247 -18 -88 -48 -80 -166 13 -213 49 -24 98 -23 444 5 237 20
281 21 416 11 82 -7 244 -13 360 -13 184 -2 213 0 242 16 76 42 67 152 -15
193 -34 17 -62 19 -250 19 -239 0 -248 3 -288 81 -19 36 -20 62 -23 380 l-3
341 218 199 c337 308 382 346 393 339 19 -12 124 -157 484 -668 433 -615 423
-599 408 -632 -20 -43 -51 -48 -258 -42 -172 5 -195 4 -225 -12 -82 -44 -102
-138 -40 -193 54 -48 112 -53 375 -29 127 11 276 23 331 27 112 7 362 -8 535
-32 94 -14 125 -14 172 -5 63 14 117 45 134 79 11 23 11 23 24 -7 15 -38 75
-68 150 -77 30 -3 141 1 245 10 423 35 591 39 890 22 154 -9 325 -21 380 -28
126 -14 512 -5 687 16 499 61 815 227 1068 564 199 265 322 572 382 957 29
187 32 611 5 805 -51 366 -154 655 -322 905 -282 418 -575 590 -1125 657 -143
17 -574 16 -790 -2 -250 -21 -792 -19 -1074 4 -403 34 -506 11 -506 -110 0
-47 25 -85 73 -111 27 -15 72 -18 267 -23 155 -4 245 -10 265 -19 40 -16 92
-68 115 -111 41 -79 41 -99 38 -1595 -3 -1374 -4 -1443 -22 -1497 -22 -68 -72
-130 -130 -161 -39 -21 -53 -22 -276 -22 -268 0 -287 -5 -319 -75 l-17 -39
-17 29 c-10 15 -38 39 -65 52 -45 22 -56 23 -221 20 l-174 -3 -61 30 c-37 18
-85 55 -122 93 -34 35 -285 366 -557 737 -475 645 -495 674 -481 696 23 35
804 798 853 833 24 18 74 41 110 53 60 18 81 20 241 13 195 -7 247 1 293 44
23 22 27 34 27 78 0 70 -30 107 -99 124 -56 13 -234 2 -421 -27 -174 -27 -527
-22 -770 12 -200 27 -247 27 -307 -2 -82 -38 -86 -171 -7 -211 44 -23 128 -24
297 -7 158 16 175 17 210 2 104 -44 43 -114 -748 -856 l-510 -479 -5 1232 c-5
1218 -5 1231 -26 1266 -32 56 -58 63 -170 49 -59 -7 -139 -9 -208 -5 -204 12
-421 15 -451 7z m5666 -271 c192 -19 351 -57 476 -115 381 -175 649 -604 738
-1180 23 -146 31 -524 16 -681 -58 -579 -297 -1025 -663 -1236 -137 -80 -298
-131 -518 -165 -93 -14 -177 -18 -435 -18 -348 1 -489 12 -644 51 -104 26
-133 46 -162 109 -18 38 -19 103 -19 1548 0 1334 2 1512 15 1544 42 99 114
126 385 142 201 12 693 12 811 1z"/>
<path d="M28765 4581 c-69 -18 -95 -45 -95 -101 0 -51 28 -99 74 -123 37 -20
52 -21 151 -18 267 10 317 8 353 -17 41 -30 58 -63 72 -143 8 -45 10 -511 8
-1569 -3 -1436 -4 -1507 -22 -1555 -10 -27 -29 -65 -43 -84 -42 -55 -69 -61
-269 -58 -175 2 -180 1 -236 -25 -79 -37 -108 -102 -77 -172 29 -63 168 -78
399 -43 63 10 192 20 285 24 167 5 255 0 565 -33 171 -18 263 -11 310 24 48
36 34 127 -27 170 -56 40 -130 54 -306 59 -150 5 -171 8 -199 27 -44 29 -65
69 -77 146 -7 44 -11 612 -11 1720 0 1151 -3 1667 -11 1694 -6 21 -22 50 -35
63 -24 23 -28 24 -107 16 -100 -10 -244 -10 -487 -1 -102 4 -198 3 -215 -1z"/>
<path d="M31550 3629 c-250 -29 -464 -123 -608 -268 -141 -142 -212 -324 -212
-539 1 -461 353 -711 1170 -832 258 -38 349 -64 479 -137 90 -50 137 -96 170
-167 46 -97 64 -189 59 -303 -3 -88 -7 -106 -41 -177 -84 -177 -273 -297 -536
-341 -123 -21 -364 -16 -491 10 -284 57 -518 214 -603 405 -40 89 -47 139 -47
340 -1 223 -8 272 -42 307 -32 32 -94 41 -135 20 -70 -36 -86 -158 -58 -442
19 -190 17 -353 -6 -495 -17 -108 -8 -273 18 -330 39 -87 106 -119 176 -85 55
26 67 68 67 240 l0 146 93 -82 c136 -121 253 -190 409 -242 294 -99 691 -83
969 37 289 124 474 338 531 612 16 81 19 121 14 219 -3 66 -12 147 -21 180
-64 235 -243 408 -520 498 -145 48 -171 52 -699 117 -346 43 -498 106 -586
241 -124 191 -80 505 92 664 116 108 267 162 475 172 207 10 396 -29 530 -108
84 -50 182 -152 225 -234 55 -106 69 -176 77 -377 5 -157 8 -180 27 -205 30
-41 68 -56 118 -49 85 13 120 86 105 221 -20 181 -22 408 -4 565 19 167 15
307 -10 366 -17 42 -66 68 -113 60 -77 -12 -103 -66 -110 -228 l-5 -118 -106
103 c-119 115 -213 171 -342 206 -143 39 -333 50 -509 30z"/>
<path d="M23665 3623 c-456 -42 -809 -280 -1030 -695 -202 -380 -243 -1007
-95 -1449 150 -450 489 -759 928 -849 489 -99 1010 67 1285 411 123 154 233
391 244 529 4 57 2 69 -19 100 -59 87 -179 90 -234 5 -9 -14 -36 -91 -61 -172
-24 -82 -61 -179 -81 -217 -75 -144 -269 -309 -441 -375 -146 -56 -200 -65
-381 -65 -145 1 -177 4 -261 26 -273 74 -501 266 -639 538 -82 162 -119 318
-127 525 -5 124 -3 153 9 162 11 10 272 13 1089 15 1051 3 1075 3 1114 23 69
34 77 64 72 250 -6 175 -23 280 -69 425 -146 456 -521 761 -999 810 -96 10
-218 11 -304 3z m384 -258 c163 -38 282 -106 392 -222 160 -170 273 -434 286
-665 l6 -108 -973 0 -973 0 7 93 c11 146 77 325 180 481 157 241 385 394 651
436 91 14 338 5 424 -15z"/>
<path d="M26585 3624 c-317 -32 -556 -127 -723 -287 -119 -115 -174 -239 -176
-397 -1 -86 2 -99 26 -140 29 -51 102 -122 166 -165 62 -41 103 -38 188 12
125 75 154 100 154 133 0 46 -23 92 -64 128 -39 34 -60 39 -101 20 -40 -18
-60 9 -58 77 6 186 240 344 569 386 119 15 333 6 424 -17 88 -22 215 -84 271
-133 112 -97 170 -237 170 -410 -1 -259 -95 -393 -331 -469 -89 -29 -196 -45
-530 -82 -298 -33 -422 -55 -549 -97 -278 -93 -462 -272 -533 -518 -20 -69
-23 -101 -22 -240 1 -131 5 -174 22 -239 83 -304 296 -482 657 -553 111 -21
412 -24 525 -4 369 63 517 149 720 415 40 53 75 94 78 91 3 -2 18 -54 33 -115
45 -180 84 -249 181 -323 79 -59 168 -82 318 -81 148 0 222 18 310 74 159 104
209 289 191 714 -10 223 -17 248 -80 267 -67 20 -121 -1 -157 -61 -5 -8 -12
-136 -15 -285 -5 -217 -9 -281 -24 -325 -43 -137 -200 -200 -333 -134 -62 31
-105 82 -135 161 -22 58 -22 59 -17 588 11 1134 8 1232 -36 1410 -35 140 -164
347 -260 417 -106 78 -249 135 -414 164 -83 15 -365 26 -445 18z m855 -1624
c-14 -421 -31 -518 -121 -691 -155 -298 -491 -455 -934 -436 -149 6 -243 29
-345 83 -185 98 -280 254 -282 464 -1 188 66 326 216 446 146 116 190 128 781
199 160 19 317 42 350 50 94 24 176 69 261 144 44 37 80 67 82 65 2 -1 -2
-147 -8 -324z"/>
<path d="M11027 3566 c-65 -18 -100 -46 -111 -88 -17 -69 18 -127 90 -147 22
-6 122 -11 224 -12 116 0 198 -5 219 -12 40 -14 68 -49 83 -103 7 -25 13 -348
18 -889 5 -566 12 -875 20 -925 51 -329 168 -509 418 -647 267 -148 639 -191
951 -112 224 57 489 249 604 437 l52 85 6 -169 c9 -237 25 -284 101 -305 33
-8 60 -8 129 5 109 20 261 20 362 1 137 -26 234 -15 282 32 21 21 25 35 25 80
0 47 -4 59 -28 83 -51 51 -132 60 -334 38 -122 -13 -166 -5 -218 38 -70 59
-64 -43 -70 1299 -5 1199 -5 1210 -26 1250 -37 73 -124 92 -259 60 -78 -19
-153 -19 -273 1 -193 32 -342 5 -372 -66 -19 -45 -7 -110 25 -137 52 -45 121
-50 390 -27 62 5 75 3 115 -18 59 -32 89 -90 102 -197 6 -49 8 -356 5 -774 -3
-573 -7 -705 -20 -769 -74 -370 -283 -606 -615 -695 -89 -24 -113 -27 -292
-26 -222 0 -293 13 -430 79 -144 70 -265 223 -313 394 -40 142 -40 141 -46
1160 -6 980 -6 996 -27 1030 -32 55 -64 66 -135 46 -75 -20 -261 -21 -384 -1
-109 18 -203 18 -268 1z"/>
</g>
</svg>
