<svg width="37" height="36" viewBox="0 0 37 36" fill="none" xmlns="http://www.w3.org/2000/svg">
<path d="M18.5051 28.5C20.1128 28.5 21.6547 27.8679 22.7915 26.7426C23.9283 25.6174 24.5669 24.0913 24.5669 22.5C24.5669 20.9087 23.9283 19.3826 22.7915 18.2574C21.6547 17.1321 20.1128 16.5 18.5051 16.5C16.8974 16.5 15.3555 17.1321 14.2187 18.2574C13.0819 19.3826 12.4432 20.9087 12.4432 22.5C12.4432 24.0913 13.0819 25.6174 14.2187 26.7426C15.3555 27.8679 16.8974 28.5 18.5051 28.5V28.5Z" stroke="#434343" stroke-width="1.5" stroke-miterlimit="10" stroke-linecap="round" stroke-linejoin="round"/>
<path d="M16.141 22.5L17.126 23.475C17.414 23.76 17.8838 23.775 18.1717 23.49L20.8692 21.03" stroke="#434343" stroke-width="1.5" stroke-linecap="round" stroke-linejoin="round"/>
<path d="M11.6856 11.4923V10.0373C11.6856 6.66234 14.4286 3.34734 17.8384 3.03234C18.7858 2.94021 19.7422 3.04544 20.6461 3.34125C21.55 3.63707 22.3812 4.11691 23.0864 4.74991C23.7916 5.38291 24.3551 6.15504 24.7406 7.0166C25.1261 7.87816 25.3251 8.81007 25.3248 9.75235V11.8223M13.9588 32.9873H23.0516C29.1437 32.9873 30.2349 30.5723 30.5531 27.6323L31.6897 18.6323C32.0989 14.9723 31.0381 11.9873 24.567 11.9873H12.4433C5.97229 11.9873 4.91147 14.9723 5.32064 18.6323L6.45724 27.6323C6.77549 30.5723 7.86662 32.9873 13.9588 32.9873Z" stroke="#434343" stroke-width="1.5" stroke-miterlimit="10" stroke-linecap="round" stroke-linejoin="round"/>
</svg>
