<svg width="18" height="19" viewBox="0 0 18 19" fill="none" xmlns="http://www.w3.org/2000/svg">
<path d="M1.5 16.7553H16.5M14.985 16.7628V13.7553M2.25 10.7553H11.25M6.75 16.7553V13.9428M11.2575 16.7478L2.2575 16.7628L2.25 5.55775C2.25 5.05525 2.505 4.59025 2.9175 4.31275L5.9175 2.31025C6.42 1.97275 7.08 1.97275 7.5825 2.31025L10.5825 4.31275C11.0025 4.59025 11.25 5.05525 11.25 5.55775L11.2575 16.7478V16.7478ZM15 9.25525C14.175 9.25525 13.5 9.93025 13.5 10.7553V12.2553C13.5 13.0803 14.175 13.7553 15 13.7553C15.825 13.7553 16.5 13.0803 16.5 12.2553V10.7553C16.5 9.93025 15.825 9.25525 15 9.25525Z" stroke="#3B618B" stroke-miterlimit="10" stroke-linecap="round" stroke-linejoin="round"/>
<path d="M6.75 8.13037C7.04837 8.13037 7.33452 8.01184 7.5455 7.80087C7.75647 7.58989 7.875 7.30374 7.875 7.00537C7.875 6.707 7.75647 6.42085 7.5455 6.20988C7.33452 5.9989 7.04837 5.88037 6.75 5.88037C6.45163 5.88037 6.16548 5.9989 5.9545 6.20988C5.74353 6.42085 5.625 6.707 5.625 7.00537C5.625 7.30374 5.74353 7.58989 5.9545 7.80087C6.16548 8.01184 6.45163 8.13037 6.75 8.13037Z" stroke="#3B618B" stroke-miterlimit="10" stroke-linecap="round" stroke-linejoin="round"/>
</svg>
