<svg width="35" height="35" viewBox="0 0 35 35" fill="none" xmlns="http://www.w3.org/2000/svg">
<path d="M14.3328 7.29167L11.4162 10.2083H5.83366V27.7083H29.167V10.2083H23.5845L20.6678 7.29167H14.3328ZM13.1253 4.375H21.8753L24.792 7.29167H30.6253C31.0121 7.29167 31.383 7.44531 31.6565 7.7188C31.93 7.99229 32.0837 8.36323 32.0837 8.75V29.1667C32.0837 29.5534 31.93 29.9244 31.6565 30.1979C31.383 30.4714 31.0121 30.625 30.6253 30.625H4.37533C3.98855 30.625 3.61762 30.4714 3.34413 30.1979C3.07064 29.9244 2.91699 29.5534 2.91699 29.1667V8.75C2.91699 8.36323 3.07064 7.99229 3.34413 7.7188C3.61762 7.44531 3.98855 7.29167 4.37533 7.29167H10.2087L13.1253 4.375ZM17.5003 26.25C15.3731 26.25 13.3329 25.405 11.8287 23.9008C10.3245 22.3966 9.47949 20.3564 9.47949 18.2292C9.47949 16.1019 10.3245 14.0618 11.8287 12.5576C13.3329 11.0534 15.3731 10.2083 17.5003 10.2083C19.6276 10.2083 21.6677 11.0534 23.1719 12.5576C24.6761 14.0618 25.5212 16.1019 25.5212 18.2292C25.5212 20.3564 24.6761 22.3966 23.1719 23.9008C21.6677 25.405 19.6276 26.25 17.5003 26.25ZM17.5003 23.3333C18.854 23.3333 20.1523 22.7956 21.1095 21.8384C22.0667 20.8811 22.6045 19.5829 22.6045 18.2292C22.6045 16.8755 22.0667 15.5772 21.1095 14.62C20.1523 13.6628 18.854 13.125 17.5003 13.125C16.1466 13.125 14.8484 13.6628 13.8911 14.62C12.9339 15.5772 12.3962 16.8755 12.3962 18.2292C12.3962 19.5829 12.9339 20.8811 13.8911 21.8384C14.8484 22.7956 16.1466 23.3333 17.5003 23.3333Z" fill="#878787"/>
</svg>
