<svg width="19" height="21" viewBox="0 0 19 21" fill="none" xmlns="http://www.w3.org/2000/svg">
<path d="M17.1667 20.0832H1.83333C1.57917 20.0832 1.33541 19.9822 1.15569 19.8025C0.975967 19.6228 0.875 19.379 0.875 19.1248V1.87484C0.875 1.62067 0.975967 1.37692 1.15569 1.19719C1.33541 1.01747 1.57917 0.916504 1.83333 0.916504H17.1667C17.4208 0.916504 17.6646 1.01747 17.8443 1.19719C18.024 1.37692 18.125 1.62067 18.125 1.87484V19.1248C18.125 19.379 18.024 19.6228 17.8443 19.8025C17.6646 19.9822 17.4208 20.0832 17.1667 20.0832ZM16.2083 18.1665V2.83317H2.79167V18.1665H16.2083ZM5.66667 5.70817H13.3333V7.62484H5.66667V5.70817ZM5.66667 9.54151H13.3333V11.4582H5.66667V9.54151ZM5.66667 13.3748H10.4583V15.2915H5.66667V13.3748Z" fill="#878787"/>
</svg>
