<svg width="18" height="20" viewBox="0 0 18 20" fill="none" xmlns="http://www.w3.org/2000/svg">
<path d="M3.95873 4.49169V1.71765C3.95873 1.47241 4.06021 1.23721 4.24085 1.0638C4.42148 0.89039 4.66648 0.792969 4.92194 0.792969H16.4804C16.7359 0.792969 16.9809 0.89039 17.1615 1.0638C17.3422 1.23721 17.4436 1.47241 17.4436 1.71765V14.6632C17.4436 14.9084 17.3422 15.1436 17.1615 15.317C16.9809 15.4904 16.7359 15.5878 16.4804 15.5878H13.5908V18.3619C13.5908 18.8723 13.1574 19.2866 12.6209 19.2866H1.07585C0.948825 19.2873 0.822906 19.2639 0.705322 19.2178C0.587738 19.1717 0.480809 19.1037 0.390677 19.0178C0.300545 18.9318 0.228987 18.8297 0.180115 18.7171C0.131243 18.6045 0.106021 18.4838 0.105896 18.3619L0.108786 5.41637C0.108786 4.90594 0.54223 4.49169 1.07874 4.49169H3.95873ZM2.0352 6.34105L2.03231 17.4372H11.6644V6.34105H2.0352ZM5.88515 4.49169H13.5908V13.7385H15.5172V2.64233H5.88515V4.49169Z" fill="#676767"/>
</svg>
