<svg width="31" height="27" viewBox="0 0 31 27" fill="none" xmlns="http://www.w3.org/2000/svg">
<path d="M12.3326 3.29167L9.41591 6.20833H3.83341V23.7083H27.1667V6.20833H21.5842L18.6676 3.29167H12.3326ZM11.1251 0.375H19.8751L22.7917 3.29167H28.6251C29.0119 3.29167 29.3828 3.44531 29.6563 3.7188C29.9298 3.99229 30.0834 4.36323 30.0834 4.75V25.1667C30.0834 25.5534 29.9298 25.9244 29.6563 26.1979C29.3828 26.4714 29.0119 26.625 28.6251 26.625H2.37508C1.98831 26.625 1.61737 26.4714 1.34388 26.1979C1.07039 25.9244 0.916748 25.5534 0.916748 25.1667V4.75C0.916748 4.36323 1.07039 3.99229 1.34388 3.7188C1.61737 3.44531 1.98831 3.29167 2.37508 3.29167H8.20841L11.1251 0.375ZM15.5001 22.25C13.3728 22.25 11.3327 21.405 9.8285 19.9008C8.3243 18.3966 7.47925 16.3564 7.47925 14.2292C7.47925 12.1019 8.3243 10.0618 9.8285 8.55758C11.3327 7.05338 13.3728 6.20833 15.5001 6.20833C17.6273 6.20833 19.6675 7.05338 21.1717 8.55758C22.6759 10.0618 23.5209 12.1019 23.5209 14.2292C23.5209 16.3564 22.6759 18.3966 21.1717 19.9008C19.6675 21.405 17.6273 22.25 15.5001 22.25ZM15.5001 19.3333C16.8538 19.3333 18.1521 18.7956 19.1093 17.8384C20.0665 16.8811 20.6042 15.5829 20.6042 14.2292C20.6042 12.8755 20.0665 11.5772 19.1093 10.62C18.1521 9.66276 16.8538 9.125 15.5001 9.125C14.1464 9.125 12.8481 9.66276 11.8909 10.62C10.9337 11.5772 10.3959 12.8755 10.3959 14.2292C10.3959 15.5829 10.9337 16.8811 11.8909 17.8384C12.8481 18.7956 14.1464 19.3333 15.5001 19.3333Z" fill="white"/>
</svg>
