<svg width="19" height="19" viewBox="0 0 19 19" fill="none" xmlns="http://www.w3.org/2000/svg">
<g clip-path="url(#clip0_1268_27277)">
<path d="M2.65212 1.5835H9.69795C10.2838 1.5835 10.7667 2.06641 10.7667 2.65225V3.82391C10.7667 4.25141 10.4975 4.78183 10.2363 5.051L7.94045 7.07766C7.62378 7.34683 7.41003 7.87725 7.41003 8.30475V10.6006C7.41003 10.9172 7.19628 11.3447 6.92712 11.511L6.18295 11.9939C5.48628 12.4214 4.52837 11.9385 4.52837 11.0835V8.25725C4.52837 7.88516 4.31462 7.40225 4.10087 7.13308L2.0742 4.99558C1.80503 4.72641 1.59128 4.25141 1.59128 3.92683V2.69975C1.58337 2.06641 2.06628 1.5835 2.65212 1.5835Z" stroke="#878787" stroke-width="1.5" stroke-miterlimit="10" stroke-linecap="round" stroke-linejoin="round"/>
<path d="M1.58337 9.5001V11.8751C1.58337 15.8334 3.16671 17.4168 7.12504 17.4168H11.875C15.8334 17.4168 17.4167 15.8334 17.4167 11.8751V7.1251C17.4167 4.6551 16.7992 3.10344 15.3663 2.29594C14.9625 2.06635 14.155 1.89219 13.4188 1.77344M10.2917 10.2918H14.25M8.70837 13.4584H14.25" stroke="#878787" stroke-width="1.5" stroke-linecap="round" stroke-linejoin="round"/>
</g>
<defs>
<clipPath id="clip0_1268_27277">
<rect width="19" height="19" fill="white"/>
</clipPath>
</defs>
</svg>
