<svg width="22" height="22" viewBox="0 0 22 22" fill="none" xmlns="http://www.w3.org/2000/svg">
<g clip-path="url(#clip0_1419_29017)">
<path d="M21.1666 10.5833C21.1666 4.7383 16.4283 0 10.5833 0C4.7383 0 0 4.7383 0 10.5833C0 15.8656 3.87014 20.2441 8.92965 21.038V13.6425H6.24249V10.5833H8.92965V8.25166C8.92965 5.59922 10.5097 4.1341 12.9271 4.1341C14.0847 4.1341 15.2962 4.3408 15.2962 4.3408V6.94529H13.9617C12.647 6.94529 12.2369 7.76115 12.2369 8.59893V10.5833H15.1721L14.7029 13.6425H12.2369V21.038C17.2964 20.2441 21.1666 15.8656 21.1666 10.5833Z" fill="#1877F2"/>
<path d="M14.7026 13.6427L15.1718 10.5835H12.2366V8.5991C12.2366 7.76216 12.6467 6.94546 13.9614 6.94546H15.2959V4.34098C15.2959 4.34098 14.0848 4.13428 12.9268 4.13428C10.5094 4.13428 8.92935 5.5994 8.92935 8.25184V10.5835H6.24219V13.6427H8.92935V21.0382C10.0251 21.2096 11.1409 21.2096 12.2366 21.0382V13.6427H14.7026Z" fill="white"/>
</g>
<defs>
<clipPath id="clip0_1419_29017">
<rect width="21.1666" height="21.1666" fill="white"/>
</clipPath>
</defs>
</svg>
