<svg width="27" height="39" viewBox="0 0 27 39" fill="none" xmlns="http://www.w3.org/2000/svg">
<path d="M0.979492 1.33331V37.8136ZM0.979492 4.98135H21.4085C26.3333 4.98135 27.4277 7.71737 23.9621 11.183L21.7733 13.3718C20.3141 14.831 20.3141 17.2023 21.7733 18.4791L23.9621 20.6679C27.4277 24.1335 26.1509 26.8695 21.4085 26.8695H0.979492" fill="#FC0000"/>
<path d="M0.979492 1.33331V37.8136M0.979492 4.98135H21.4085C26.3333 4.98135 27.4277 7.71737 23.9621 11.183L21.7733 13.3718C20.3141 14.831 20.3141 17.2023 21.7733 18.4791L23.9621 20.6679C27.4277 24.1335 26.1509 26.8695 21.4085 26.8695H0.979492" stroke="#FC0000" stroke-width="1.5" stroke-miterlimit="10" stroke-linecap="round" stroke-linejoin="round"/>
</svg>
