<svg width="18" height="19" viewBox="0 0 18 19" fill="none" xmlns="http://www.w3.org/2000/svg">
<path d="M9 11.75C9.59674 11.75 10.169 11.5129 10.591 11.091C11.0129 10.669 11.25 10.0967 11.25 9.5C11.25 8.90326 11.0129 8.33097 10.591 7.90901C10.169 7.48705 9.59674 7.25 9 7.25C8.40326 7.25 7.83097 7.48705 7.40901 7.90901C6.98705 8.33097 6.75 8.90326 6.75 9.5C6.75 10.0967 6.98705 10.669 7.40901 11.091C7.83097 11.5129 8.40326 11.75 9 11.75V11.75Z" stroke="#878787" stroke-width="1.5" stroke-miterlimit="10" stroke-linecap="round" stroke-linejoin="round"/>
<path d="M1.5 10.16V8.83995C1.5 8.05995 2.1375 7.41495 2.925 7.41495C4.2825 7.41495 4.8375 6.45495 4.155 5.27745C3.765 4.60245 3.9975 3.72495 4.68 3.33495L5.9775 2.59245C6.57 2.23995 7.335 2.44995 7.6875 3.04245L7.77 3.18495C8.445 4.36245 9.555 4.36245 10.2375 3.18495L10.32 3.04245C10.6725 2.44995 11.4375 2.23995 12.03 2.59245L13.3275 3.33495C14.01 3.72495 14.2425 4.60245 13.8525 5.27745C13.17 6.45495 13.725 7.41495 15.0825 7.41495C15.8625 7.41495 16.5075 8.05245 16.5075 8.83995V10.16C16.5075 10.94 15.87 11.585 15.0825 11.585C13.725 11.585 13.17 12.545 13.8525 13.7225C14.2425 14.405 14.01 15.275 13.3275 15.665L12.03 16.4075C11.4375 16.76 10.6725 16.55 10.32 15.9575L10.2375 15.815C9.5625 14.6375 8.4525 14.6375 7.77 15.815L7.6875 15.9575C7.335 16.55 6.57 16.76 5.9775 16.4075L4.68 15.665C4.35307 15.4767 4.11419 15.1665 4.01576 14.8023C3.91733 14.4381 3.96741 14.0497 4.155 13.7225C4.8375 12.545 4.2825 11.585 2.925 11.585C2.1375 11.585 1.5 10.94 1.5 10.16V10.16Z" stroke="#878787" stroke-width="1.5" stroke-miterlimit="10" stroke-linecap="round" stroke-linejoin="round"/>
</svg>
