<svg width="17" height="16" viewBox="0 0 17 16" fill="none" xmlns="http://www.w3.org/2000/svg">
<path d="M11.975 0.600098C14.4054 0.600098 16.375 2.6001 16.375 5.4001C16.375 11.0001 10.375 14.2001 8.375 15.4001C6.375 14.2001 0.375 11.0001 0.375 5.4001C0.375 2.6001 2.375 0.600098 4.775 0.600098C6.263 0.600098 7.575 1.4001 8.375 2.2001C9.175 1.4001 10.487 0.600098 11.975 0.600098ZM9.1222 13.0833C9.827 12.6385 10.463 12.1961 11.0582 11.7225C13.443 9.8265 14.775 7.7545 14.775 5.4001C14.775 3.5121 13.5454 2.2001 11.975 2.2001C11.1142 2.2001 10.183 2.6561 9.5062 3.3313L8.375 4.4625L7.2438 3.3313C6.567 2.6561 5.6358 2.2001 4.775 2.2001C3.223 2.2001 1.975 3.5249 1.975 5.4001C1.975 7.7553 3.3078 9.8265 5.691 11.7225C6.287 12.1961 6.923 12.6385 7.6278 13.0825C7.867 13.2337 8.1038 13.3785 8.375 13.5401C8.6462 13.3785 8.883 13.2337 9.1222 13.0833Z" fill="white"/>
</svg>
