<svg width="21" height="20" viewBox="0 0 21 20" fill="none" xmlns="http://www.w3.org/2000/svg">
<g clip-path="url(#clip0_1772_33997)">
<path d="M18.6515 0H1.85832C1.47259 0 1.10266 0.15323 0.829912 0.425981C0.557161 0.698732 0.403931 1.06866 0.403931 1.45439V18.2476C0.403931 18.6333 0.557161 19.0033 0.829912 19.276C1.10266 19.5488 1.47259 19.702 1.85832 19.702H18.6515C19.0373 19.702 19.4072 19.5488 19.6799 19.276C19.9527 19.0033 20.1059 18.6333 20.1059 18.2476V1.45439C20.1059 1.06866 19.9527 0.698732 19.6799 0.425981C19.4072 0.15323 19.0373 0 18.6515 0ZM6.27622 16.7836H3.31408V7.37456H6.27622V16.7836ZM4.7931 6.07067C4.45709 6.06878 4.12918 5.9674 3.85074 5.77932C3.5723 5.59124 3.35581 5.3249 3.2286 5.0139C3.10139 4.7029 3.06916 4.36119 3.13596 4.03189C3.20277 3.70259 3.36563 3.40046 3.60399 3.16363C3.84234 2.9268 4.14551 2.76589 4.47524 2.70119C4.80496 2.6365 5.14646 2.67093 5.45663 2.80013C5.7668 2.92934 6.03175 3.14753 6.21804 3.42717C6.40433 3.70681 6.5036 4.03537 6.50334 4.37138C6.50651 4.59634 6.46435 4.81963 6.37939 5.02795C6.29442 5.23627 6.16839 5.42535 6.00879 5.58393C5.8492 5.7425 5.65931 5.86732 5.45045 5.95094C5.24159 6.03457 5.01803 6.07529 4.7931 6.07067ZM17.1944 16.7918H14.2336V11.6515C14.2336 10.1356 13.5892 9.66765 12.7573 9.66765C11.879 9.66765 11.017 10.3299 11.017 11.6898V16.7918H8.05487V7.3814H10.9034V8.68529H10.9418C11.2277 8.10655 12.2292 7.11734 13.7575 7.11734C15.4103 7.11734 17.1958 8.09834 17.1958 10.9715L17.1944 16.7918Z" fill="#0A66C2"/>
</g>
<defs>
<clipPath id="clip0_1772_33997">
<rect width="19.702" height="19.702" fill="white" transform="translate(0.403931)"/>
</clipPath>
</defs>
</svg>
