<svg width="16" height="16" viewBox="0 0 16 16" fill="none" xmlns="http://www.w3.org/2000/svg">
<path d="M0.68225 5.14086L7.6175 0.982859C7.73406 0.912921 7.86744 0.875977 8.00338 0.875977C8.13931 0.875977 8.27269 0.912921 8.38925 0.982859L15.3177 5.14161C15.3733 5.17492 15.4194 5.22207 15.4513 5.27846C15.4832 5.33485 15.5 5.39855 15.5 5.46336V15.0004C15.5 15.1993 15.421 15.39 15.2803 15.5307C15.1397 15.6713 14.9489 15.7504 14.75 15.7504H1.25C1.05109 15.7504 0.860322 15.6713 0.71967 15.5307C0.579018 15.39 0.5 15.1993 0.5 15.0004V5.46261C0.499986 5.3978 0.516768 5.3341 0.548709 5.27771C0.58065 5.22132 0.626659 5.17417 0.68225 5.14086ZM2 6.10011V14.2504H14V6.09936L8.003 2.49936L2 6.09936V6.10011ZM8.045 10.2739L12.017 6.92661L12.983 8.07411L8.0555 12.2269L3.023 8.07936L3.977 6.92136L8.045 10.2739Z" fill="#878787"/>
</svg>
