<svg width="36" height="36" viewBox="0 0 36 36" fill="none" xmlns="http://www.w3.org/2000/svg">
<path d="M18 23.25C21.315 23.25 24 20.565 24 17.25V9C24 5.685 21.315 3 18 3C14.685 3 12 5.685 12 9V17.25C12 20.565 14.685 23.25 18 23.25Z" stroke="#434343" stroke-width="1.5" stroke-linecap="round" stroke-linejoin="round"/>
<path d="M6.5249 14.475V17.025C6.5249 23.355 11.6699 28.5 17.9999 28.5M17.9999 28.5C24.3299 28.5 29.4749 23.355 29.4749 17.025V14.475M17.9999 28.5V33M15.9149 9.64499C17.2649 9.14999 18.7349 9.14999 20.0849 9.64499M16.7999 12.825C17.5949 12.615 18.4199 12.615 19.2149 12.825" stroke="#434343" stroke-width="1.5" stroke-linecap="round" stroke-linejoin="round"/>
</svg>
