<svg width="16" height="18" viewBox="0 0 16 18" fill="none" xmlns="http://www.w3.org/2000/svg">
<path d="M15.1841 6.04183C14.3091 2.19183 10.9508 0.458496 8.00081 0.458496H7.99248C5.05081 0.458496 1.68415 2.1835 0.809145 6.0335C-0.165855 10.3335 2.46748 13.9752 4.85081 16.2668C5.69558 17.0845 6.82514 17.5417 8.00081 17.5418C9.13414 17.5418 10.2675 17.1168 11.1425 16.2668C13.5258 13.9752 16.1591 10.3418 15.1841 6.04183ZM8.00081 10.2168C7.65609 10.2168 7.31475 10.1489 6.99627 10.017C6.67779 9.88509 6.38841 9.69174 6.14466 9.44798C5.9009 9.20423 5.70755 8.91485 5.57563 8.59637C5.44371 8.27789 5.37581 7.93655 5.37581 7.59183C5.37581 7.24711 5.44371 6.90577 5.57563 6.58729C5.70755 6.26881 5.9009 5.97943 6.14466 5.73567C6.38841 5.49192 6.67779 5.29856 6.99627 5.16665C7.31475 5.03473 7.65609 4.96683 8.00081 4.96683C8.69701 4.96683 9.36468 5.24339 9.85697 5.73567C10.3492 6.22796 10.6258 6.89564 10.6258 7.59183C10.6258 8.28802 10.3492 8.9557 9.85697 9.44798C9.36468 9.94027 8.69701 10.2168 8.00081 10.2168Z" fill="#FFC700"/>
</svg>
