<svg width="20" height="20" viewBox="0 0 20 20" fill="none" xmlns="http://www.w3.org/2000/svg">
<g clip-path="url(#clip0_1422_9158)">
<path d="M10.9928 11.5832H9.40951C8.11086 11.5827 6.83677 11.9372 5.72499 12.6083C4.61321 13.2794 3.70602 14.2417 3.10151 15.3911C3.08451 15.1778 3.07606 14.9638 3.07617 14.7498C3.07617 10.3775 6.62046 6.83317 10.9928 6.83317V2.479L19.3053 9.20817L10.9928 15.9373V11.5832ZM9.40951 9.99984H12.5762V12.6187L16.7886 9.20817L12.5762 5.79767V8.4165H10.9928C10.0826 8.41548 9.18292 8.61111 8.35531 8.99C7.5277 9.3689 6.79172 9.92211 6.19771 10.6118C7.22001 10.2066 8.30985 9.99898 9.40951 9.99984Z" fill="#3B618B"/>
</g>
<defs>
<clipPath id="clip0_1422_9158">
<rect width="19" height="19" fill="white" transform="translate(0.701172 0.5)"/>
</clipPath>
</defs>
</svg>
