<svg width="22" height="22" viewBox="0 0 22 22" fill="none" xmlns="http://www.w3.org/2000/svg">
<g clip-path="url(#clip0_1419_29020)">
<path d="M6.93381 19.1828C14.9212 19.1828 19.29 12.5653 19.29 6.82663C19.29 6.63867 19.29 6.45156 19.2773 6.2653C20.1272 5.65054 20.8609 4.88937 21.4439 4.0174C20.6514 4.36877 19.8106 4.59909 18.9497 4.70066C19.8563 4.15799 20.5348 3.30436 20.8589 2.29868C20.0065 2.80457 19.0738 3.16106 18.1013 3.35277C17.4465 2.65655 16.5806 2.19553 15.6374 2.04105C14.6942 1.88657 13.7264 2.04725 12.8838 2.49822C12.0411 2.94919 11.3706 3.66531 10.9759 4.53576C10.5813 5.40622 10.4845 6.38247 10.7006 7.31346C8.97407 7.22686 7.28503 6.77815 5.74313 5.99648C4.20123 5.21481 2.84094 4.11765 1.75054 2.77619C1.1952 3.73222 1.02512 4.86395 1.27491 5.94097C1.5247 7.01799 2.17558 7.95932 3.09504 8.5733C2.40391 8.55305 1.72783 8.3666 1.12401 8.02974V8.08478C1.12428 9.08741 1.47136 10.0591 2.10638 10.835C2.74139 11.6109 3.62525 12.1433 4.60803 12.3418C3.96869 12.5162 3.29788 12.5417 2.64715 12.4163C2.92477 13.2791 3.46506 14.0336 4.19249 14.5744C4.91993 15.1151 5.79814 15.415 6.70437 15.4321C5.80397 16.1399 4.77288 16.6631 3.67006 16.972C2.56725 17.2809 1.41436 17.3693 0.277344 17.2321C2.26333 18.5065 4.57409 19.1826 6.93381 19.1795" fill="#1DA1F2"/>
</g>
<defs>
<clipPath id="clip0_1419_29020">
<rect width="21.1666" height="21.1666" fill="white" transform="translate(0.277344)"/>
</clipPath>
</defs>
</svg>
