<svg width="37" height="36" viewBox="0 0 37 36" fill="none" xmlns="http://www.w3.org/2000/svg">
<path d="M28.006 32.43C26.6724 32.82 25.0963 33 23.2475 33H14.1547C12.3058 33 10.7297 32.82 9.39612 32.43C9.72952 28.53 13.7758 25.455 18.7011 25.455C23.6263 25.455 27.6726 28.53 28.006 32.43V32.43Z" stroke="#434343" stroke-width="1.5" stroke-linecap="round" stroke-linejoin="round"/>
<path d="M23.2474 3H14.1546C6.57731 3 3.54639 6 3.54639 13.5V22.5C3.54639 28.17 5.27402 31.275 9.39608 32.43C9.72948 28.53 13.7758 25.455 18.701 25.455C23.6263 25.455 27.6726 28.53 28.006 32.43C32.128 31.275 33.8557 28.17 33.8557 22.5V13.5C33.8557 6 30.8247 3 23.2474 3ZM18.701 21.255C15.7004 21.255 13.2757 18.84 13.2757 15.87C13.2757 12.9 15.7004 10.5 18.701 10.5C21.7016 10.5 24.1264 12.9 24.1264 15.87C24.1264 18.84 21.7016 21.255 18.701 21.255Z" stroke="#434343" stroke-width="1.5" stroke-linecap="round" stroke-linejoin="round"/>
<path d="M24.1265 15.87C24.1265 18.84 21.7017 21.255 18.7011 21.255C15.7005 21.255 13.2758 18.84 13.2758 15.87C13.2758 12.9 15.7005 10.5 18.7011 10.5C21.7017 10.5 24.1265 12.9 24.1265 15.87Z" stroke="#434343" stroke-width="1.5" stroke-linecap="round" stroke-linejoin="round"/>
</svg>
