<svg width="18" height="18" viewBox="0 0 18 18" fill="none" xmlns="http://www.w3.org/2000/svg">
<path d="M3 1.5H15C15.4142 1.5 15.75 1.83579 15.75 2.25V16.7072C15.75 16.9144 15.5821 17.0823 15.375 17.0823C15.3223 17.0823 15.2703 17.0711 15.2222 17.0497L9 14.2735L2.7778 17.0497C2.58866 17.1341 2.36693 17.0492 2.28254 16.8601C2.26109 16.8119 2.25 16.7599 2.25 16.7072V2.25C2.25 1.83579 2.58579 1.5 3 1.5ZM14.25 14.9734V3H3.75V14.9734L9 12.6309L14.25 14.9734ZM9 10.125L6.7958 11.2838L7.21677 8.82938L5.43354 7.09119L7.89788 6.73309L9 4.5L10.1021 6.73309L12.5665 7.09119L10.7832 8.82938L11.2042 11.2838L9 10.125Z" fill="#878787"/>
</svg>
