<svg width="15" height="14" viewBox="0 0 15 14" fill="none" xmlns="http://www.w3.org/2000/svg">
<path d="M10.3516 0.859375C12.4877 0.859375 14.2188 2.61719 14.2188 5.07813C14.2188 10 8.94531 12.8125 7.1875 13.8672C5.42969 12.8125 0.15625 10 0.15625 5.07813C0.15625 2.61719 1.91406 0.859375 4.02344 0.859375C5.33125 0.859375 6.48438 1.5625 7.1875 2.26563C7.89063 1.5625 9.04375 0.859375 10.3516 0.859375ZM7.84422 11.8309C8.46367 11.44 9.02266 11.0512 9.54578 10.6349C11.6418 8.96852 12.8125 7.14742 12.8125 5.07813C12.8125 3.41875 11.7318 2.26563 10.3516 2.26563C9.595 2.26563 8.77656 2.66641 8.18172 3.25984L7.1875 4.25406L6.19328 3.25984C5.59844 2.66641 4.78 2.26563 4.02344 2.26563C2.65938 2.26563 1.5625 3.43 1.5625 5.07813C1.5625 7.14813 2.73391 8.96852 4.82852 10.6349C5.35235 11.0512 5.91133 11.44 6.53078 11.8302C6.74102 11.9631 6.94914 12.0904 7.1875 12.2324C7.42586 12.0904 7.63399 11.9631 7.84422 11.8309Z" fill="#434343"/>
</svg>
