<svg width="17" height="16" viewBox="0 0 17 16" fill="none" xmlns="http://www.w3.org/2000/svg">
<path d="M11.975 0.599609C14.4054 0.599609 16.375 2.59961 16.375 5.39961C16.375 10.9996 10.375 14.1996 8.375 15.3996C6.375 14.1996 0.375 10.9996 0.375 5.39961C0.375 2.59961 2.375 0.599609 4.775 0.599609C6.263 0.599609 7.575 1.39961 8.375 2.19961C9.175 1.39961 10.487 0.599609 11.975 0.599609ZM9.1222 13.0828C9.827 12.638 10.463 12.1956 11.0582 11.722C13.443 9.82601 14.775 7.75401 14.775 5.39961C14.775 3.51161 13.5454 2.19961 11.975 2.19961C11.1142 2.19961 10.183 2.65561 9.5062 3.33081L8.375 4.46201L7.2438 3.33081C6.567 2.65561 5.6358 2.19961 4.775 2.19961C3.223 2.19961 1.975 3.52441 1.975 5.39961C1.975 7.75481 3.3078 9.82601 5.691 11.722C6.287 12.1956 6.923 12.638 7.6278 13.082C7.867 13.2332 8.1038 13.378 8.375 13.5396C8.6462 13.378 8.883 13.2332 9.1222 13.0828Z" fill="white"/>
</svg>
