<svg width="50" height="50" viewBox="0 0 50 50" fill="none" xmlns="http://www.w3.org/2000/svg">
<path d="M24.9998 39.5832C27.21 39.5832 29.3296 38.7052 30.8924 37.1424C32.4552 35.5796 33.3332 33.46 33.3332 31.2498C33.3332 29.0397 32.4552 26.9201 30.8924 25.3573C29.3296 23.7945 27.21 22.9165 24.9998 22.9165C22.7897 22.9165 20.6701 23.7945 19.1073 25.3573C17.5445 26.9201 16.6665 29.0397 16.6665 31.2498C16.6665 33.46 17.5445 35.5796 19.1073 37.1424C20.6701 38.7052 22.7897 39.5832 24.9998 39.5832V39.5832Z" stroke="#A3CEFD" stroke-width="3" stroke-miterlimit="10" stroke-linecap="round" stroke-linejoin="round"/>
<path d="M21.75 31.2502L23.1042 32.6043C23.5 33.0002 24.1458 33.021 24.5417 32.6252L28.25 29.2085" stroke="#A3CEFD" stroke-width="3" stroke-linecap="round" stroke-linejoin="round"/>
<path d="M15.6249 15.979V13.9582C15.6249 9.27067 19.3957 4.66651 24.0832 4.22901C25.3857 4.10104 26.7005 4.24719 27.943 4.65804C29.1856 5.06889 30.3284 5.73535 31.2978 6.61452C32.2672 7.49368 33.0419 8.56608 33.5718 9.76269C34.1018 10.9593 34.3753 12.2536 34.3749 13.5623V16.4373M18.7499 45.8332H31.2499C39.6249 45.8332 41.1249 42.479 41.5624 38.3957L43.1249 25.8957C43.6874 20.8123 42.2291 16.6665 33.3332 16.6665H16.6666C7.77072 16.6665 6.31238 20.8123 6.87488 25.8957L8.43738 38.3957C8.87488 42.479 10.3749 45.8332 18.7499 45.8332Z" stroke="#A3CEFD" stroke-width="3" stroke-miterlimit="10" stroke-linecap="round" stroke-linejoin="round"/>
</svg>
