<svg width="44" height="45" viewBox="0 0 44 45" fill="none" xmlns="http://www.w3.org/2000/svg">
<path d="M31.1873 6.33321C35.229 6.33321 38.479 9.60404 38.479 13.6249C38.479 17.5624 35.354 20.7707 31.4582 20.9165C31.2782 20.8957 31.0965 20.8957 30.9165 20.9165M35.2082 39.6665C36.7082 39.354 38.1248 38.7499 39.2915 37.854C42.5415 35.4165 42.5415 31.3957 39.2915 28.9582C38.1457 28.0832 36.7498 27.4999 35.2707 27.1665M16.0832 20.6457C15.8748 20.6249 15.6248 20.6249 15.3957 20.6457C13.0044 20.5645 10.7387 19.5558 9.07823 17.8331C7.41779 16.1105 6.49305 13.8092 6.49984 11.4165C6.49984 6.31238 10.6248 2.16654 15.7498 2.16654C18.2003 2.12234 20.568 3.0534 22.332 4.7549C24.096 6.45641 25.1119 8.78897 25.1561 11.2395C25.2003 13.69 24.2692 16.0576 22.5677 17.8216C20.8662 19.5857 18.5337 20.6015 16.0832 20.6457ZM5.6665 28.3332C0.624837 31.7082 0.624837 37.2082 5.6665 40.5624C11.3957 44.3957 20.7915 44.3957 26.5207 40.5624C31.5623 37.1874 31.5623 31.6874 26.5207 28.3332C20.8123 24.5207 11.4165 24.5207 5.6665 28.3332V28.3332Z" stroke="#A3CEFD" stroke-width="3" stroke-linecap="round" stroke-linejoin="round"/>
</svg>
