<svg width="30" height="30" viewBox="0 0 30 30" fill="none" xmlns="http://www.w3.org/2000/svg">
<path d="M15.15 15.975C15.0504 15.9625 14.9496 15.9625 14.85 15.975C13.7899 15.9393 12.7852 15.493 12.0482 14.7303C11.3111 13.9675 10.8994 12.9482 10.9 11.8875C10.9 9.62501 12.725 7.78751 15 7.78751C16.0743 7.78565 17.1063 8.20602 17.8735 8.95802C18.6407 9.71001 19.0817 10.7334 19.1014 11.8075C19.1211 12.8816 18.7179 13.9205 17.9787 14.7C17.2396 15.4796 16.2236 15.9375 15.15 15.975V15.975ZM23.425 24.225C21.1278 26.3364 18.12 27.5056 15 27.5C11.75 27.5 8.8 26.2625 6.575 24.225C6.7 23.05 7.45 21.9 8.7875 21C12.2125 18.725 17.8125 18.725 21.2125 21C22.55 21.9 23.3 23.05 23.425 24.225V24.225Z" stroke="#ADCBED" stroke-width="1.5" stroke-linecap="round" stroke-linejoin="round"/>
<path d="M15 27.5C21.9037 27.5 27.5 21.9037 27.5 15C27.5 8.09625 21.9037 2.5 15 2.5C8.09625 2.5 2.5 8.09625 2.5 15C2.5 21.9037 8.09625 27.5 15 27.5Z" stroke="#ADCBED" stroke-width="1.5" stroke-linecap="round" stroke-linejoin="round"/>
</svg>
