<svg width="20" height="21" viewBox="0 0 20 21" fill="none" xmlns="http://www.w3.org/2000/svg">
<g clip-path="url(#clip0_694_23358)">
<path d="M9.99984 15.8366C10.8839 15.8366 11.7317 15.4854 12.3569 14.8603C12.982 14.2352 13.3332 13.3873 13.3332 12.5033C13.3332 11.6192 12.982 10.7714 12.3569 10.1462C11.7317 9.52111 10.8839 9.16992 9.99984 9.16992C9.11578 9.16992 8.26794 9.52111 7.64281 10.1462C7.01769 10.7714 6.6665 11.6192 6.6665 12.5033C6.6665 13.3873 7.01769 14.2352 7.64281 14.8603C8.26794 15.4854 9.11578 15.8366 9.99984 15.8366V15.8366Z" stroke="#3B618B" stroke-width="1.5" stroke-miterlimit="10" stroke-linecap="round" stroke-linejoin="round"/>
<path d="M8.7002 12.5032L9.24186 13.0449C9.4002 13.2032 9.65853 13.2115 9.81686 13.0532L11.3002 11.6865" stroke="#3B618B" stroke-width="1.5" stroke-linecap="round" stroke-linejoin="round"/>
<path d="M6.24986 6.39473V5.58639C6.24986 3.71139 7.75819 1.86973 9.63319 1.69473C10.1542 1.64354 10.6801 1.702 11.1771 1.86634C11.6741 2.03068 12.1312 2.29727 12.519 2.64893C12.9068 3.0006 13.2166 3.42956 13.4286 3.9082C13.6406 4.38685 13.75 4.90457 13.7499 5.42806V6.57806M7.49986 18.3364H12.4999C15.8499 18.3364 16.4499 16.9947 16.6249 15.3614L17.2499 10.3614C17.4749 8.32806 16.8915 6.66973 13.3332 6.66973H6.66652C3.10819 6.66973 2.52486 8.32806 2.74986 10.3614L3.37486 15.3614C3.54986 16.9947 4.14986 18.3364 7.49986 18.3364Z" stroke="#3B618B" stroke-width="1.5" stroke-miterlimit="10" stroke-linecap="round" stroke-linejoin="round"/>
</g>
<defs>
<clipPath id="clip0_694_23358">
<rect width="20" height="20" fill="white" transform="translate(0 0.00292969)"/>
</clipPath>
</defs>
</svg>
