<svg width="24" height="24" viewBox="0 0 24 24" fill="none" xmlns="http://www.w3.org/2000/svg">
<path d="M8.0008 6V5.2C8.0008 3.43 8.0008 2 11.2008 2H12.8008C16.0008 2 16.0008 3.43 16.0008 5.2V6M8.0008 22H16.0008C20.0208 22 20.7408 20.39 20.9508 18.43L21.7008 10.43C21.9708 7.99 21.2708 6 17.0008 6H7.0008C2.7308 6 2.0308 7.99 2.3008 10.43L3.0508 18.43C3.2608 20.39 3.9808 22 8.0008 22Z" stroke="white" stroke-width="1.5" stroke-miterlimit="10" stroke-linecap="round" stroke-linejoin="round"/>
<path d="M13.9991 14.02V13C13.9991 12 13.9991 12 12.9991 12H10.9991C9.99914 12 9.99914 12 9.99914 13V14.03M13.9991 14.02C13.9991 15.11 13.9891 16 11.9991 16C10.0191 16 9.99914 15.12 9.99914 14.03M13.9991 14.02C16.7633 13.6759 19.3953 12.6369 21.6491 11M9.99914 14.03C7.40914 13.74 4.86914 12.81 2.61914 11.27" stroke="white" stroke-width="1.5" stroke-miterlimit="10" stroke-linecap="round" stroke-linejoin="round"/>
</svg>
