<svg width="20" height="20" viewBox="0 0 20 20" fill="none" xmlns="http://www.w3.org/2000/svg">
<g clip-path="url(#clip0_1448_27829)">
<path d="M18.3337 9.25008V5.75008C18.3337 2.83341 17.167 1.66675 14.2503 1.66675H10.7503C7.83366 1.66675 6.66699 2.83341 6.66699 5.75008V6.66675H9.25033C12.167 6.66675 13.3337 7.83341 13.3337 10.7501V13.3334H14.2503C17.167 13.3334 18.3337 12.1667 18.3337 9.25008Z" stroke="#3B618B" stroke-width="1.5" stroke-linecap="round" stroke-linejoin="round"/>
<path d="M13.3337 14.2501V10.7501C13.3337 7.83341 12.167 6.66675 9.25033 6.66675H5.75033C2.83366 6.66675 1.66699 7.83341 1.66699 10.7501V14.2501C1.66699 17.1667 2.83366 18.3334 5.75033 18.3334H9.25033C12.167 18.3334 13.3337 17.1667 13.3337 14.2501Z" stroke="#3B618B" stroke-width="1.5" stroke-linecap="round" stroke-linejoin="round"/>
<path d="M5.06641 12.5L6.69141 14.125L9.93307 10.875" stroke="#3B618B" stroke-width="1.5" stroke-linecap="round" stroke-linejoin="round"/>
</g>
<defs>
<clipPath id="clip0_1448_27829">
<rect width="20" height="20" fill="white"/>
</clipPath>
</defs>
</svg>
