<svg width="16" height="17" viewBox="0 0 16 17" fill="none" xmlns="http://www.w3.org/2000/svg">
<path d="M14.4425 16C14.4425 13.0975 11.555 10.75 8 10.75C4.445 10.75 1.5575 13.0975 1.5575 16M8 8.5C8.99456 8.5 9.94838 8.10491 10.6516 7.40165C11.3549 6.69839 11.75 5.74456 11.75 4.75C11.75 3.75544 11.3549 2.80161 10.6516 2.09835C9.94838 1.39509 8.99456 1 8 1C7.00543 1 6.05161 1.39509 5.34834 2.09835C4.64508 2.80161 4.25 3.75544 4.25 4.75C4.25 5.74456 4.64508 6.69839 5.34834 7.40165C6.05161 8.10491 7.00543 8.5 8 8.5V8.5Z" stroke="#878787" stroke-width="1.5" stroke-linecap="round" stroke-linejoin="round"/>
</svg>
