<svg width="22" height="22" viewBox="0 0 22 22" fill="none" xmlns="http://www.w3.org/2000/svg">
<g clip-path="url(#clip0_1419_29022)">
<path d="M11.137 1.90582C13.9647 1.90582 14.2996 1.91822 15.4117 1.96783C16.4452 2.01331 17.0033 2.18694 17.3754 2.33163C17.8673 2.5218 18.2229 2.75331 18.5908 3.12124C18.9629 3.49331 19.1902 3.84471 19.3804 4.33667C19.5251 4.70874 19.6987 5.27098 19.7442 6.30037C19.7938 7.41657 19.8062 7.75144 19.8062 10.575C19.8062 13.4028 19.7938 13.7376 19.7442 14.8497C19.6987 15.8832 19.5251 16.4413 19.3804 16.8134C19.1902 17.3053 18.9587 17.6609 18.5908 18.0288C18.2187 18.4009 17.8673 18.6283 17.3754 18.8184C17.0033 18.9631 16.4411 19.1367 15.4117 19.1822C14.2955 19.2318 13.9606 19.2442 11.137 19.2442C8.30928 19.2442 7.97442 19.2318 6.86235 19.1822C5.82882 19.1367 5.27072 18.9631 4.89865 18.8184C4.40669 18.6283 4.05116 18.3967 3.68322 18.0288C3.31116 17.6567 3.08378 17.3053 2.89361 16.8134C2.74892 16.4413 2.57529 15.8791 2.52981 14.8497C2.4802 13.7335 2.4678 13.3986 2.4678 10.575C2.4678 7.7473 2.4802 7.41244 2.52981 6.30037C2.57529 5.26684 2.74892 4.70874 2.89361 4.33667C3.08378 3.84471 3.31529 3.48918 3.68322 3.12124C4.05529 2.74918 4.40669 2.5218 4.89865 2.33163C5.27072 2.18694 5.83296 2.01331 6.86235 1.96783C7.97442 1.91822 8.30928 1.90582 11.137 1.90582ZM11.137 0C8.26381 0 7.90414 0.0124023 6.77553 0.0620115C5.65106 0.111621 4.87798 0.293521 4.20825 0.553969C3.50959 0.82682 2.91842 1.18649 2.33137 1.77766C1.7402 2.3647 1.38053 2.95588 1.10768 3.65041C0.847232 4.32427 0.665332 5.09321 0.615722 6.21769C0.566113 7.35043 0.553711 7.7101 0.553711 10.5833C0.553711 13.4565 0.566113 13.8162 0.615722 14.9448C0.665332 16.0692 0.847232 16.8423 1.10768 17.512C1.38053 18.2107 1.7402 18.8019 2.33137 19.3889C2.91842 19.976 3.50959 20.3398 4.20412 20.6085C4.87798 20.8689 5.64692 21.0508 6.7714 21.1004C7.90001 21.1501 8.25967 21.1625 11.1329 21.1625C14.0061 21.1625 14.3657 21.1501 15.4943 21.1004C16.6188 21.0508 17.3919 20.8689 18.0616 20.6085C18.7562 20.3398 19.3473 19.976 19.9344 19.3889C20.5214 18.8019 20.8852 18.2107 21.1539 17.5162C21.4144 16.8423 21.5963 16.0734 21.6459 14.9489C21.6955 13.8203 21.7079 13.4606 21.7079 10.5874C21.7079 7.71423 21.6955 7.35456 21.6459 6.22595C21.5963 5.10148 21.4144 4.3284 21.1539 3.65868C20.8935 2.95588 20.5338 2.3647 19.9426 1.77766C19.3556 1.19062 18.7644 0.82682 18.0699 0.558103C17.396 0.297655 16.6271 0.115755 15.5026 0.0661456C14.3699 0.0124023 14.0102 0 11.137 0Z" fill="#000100"/>
<path d="M11.1365 5.14697C8.13518 5.14697 5.7002 7.58196 5.7002 10.5833C5.7002 13.5847 8.13518 16.0197 11.1365 16.0197C14.1379 16.0197 16.5729 13.5847 16.5729 10.5833C16.5729 7.58196 14.1379 5.14697 11.1365 5.14697ZM11.1365 14.1097C9.18938 14.1097 7.61015 12.5305 7.61015 10.5833C7.61015 8.63615 9.18938 7.05693 11.1365 7.05693C13.0837 7.05693 14.6629 8.63615 14.6629 10.5833C14.6629 12.5305 13.0837 14.1097 11.1365 14.1097Z" fill="#000100"/>
<path d="M18.0579 4.93177C18.0579 5.63457 17.4874 6.20094 16.7887 6.20094C16.0859 6.20094 15.5195 5.63043 15.5195 4.93177C15.5195 4.22897 16.09 3.6626 16.7887 3.6626C17.4874 3.6626 18.0579 4.2331 18.0579 4.93177Z" fill="#000100"/>
</g>
<defs>
<clipPath id="clip0_1419_29022">
<rect width="21.1666" height="21.1666" fill="white" transform="translate(0.553711)"/>
</clipPath>
</defs>
</svg>
