<svg width="18" height="21" viewBox="0 0 18 21" fill="none" xmlns="http://www.w3.org/2000/svg">
<path d="M8.96094 18.2199L13.7047 13.7019C14.6428 12.8083 15.2816 11.6699 15.5404 10.4305C15.7992 9.19113 15.6663 7.90652 15.1586 6.73909C14.6508 5.57166 13.791 4.57385 12.6878 3.87183C11.5847 3.16981 10.2877 2.7951 8.96094 2.7951C7.63419 2.7951 6.33723 3.16981 5.23406 3.87183C4.1309 4.57385 3.27107 5.57166 2.76332 6.73909C2.25556 7.90652 2.12267 9.19113 2.38146 10.4305C2.64024 11.6699 3.27908 12.8083 4.21719 13.7019L8.96094 18.2199ZM8.96094 20.8011L2.86211 14.9925C1.65589 13.8436 0.83445 12.3799 0.501661 10.7864C0.168872 9.19296 0.339682 7.54127 0.992491 6.04025C1.6453 4.53922 2.75079 3.25628 4.16916 2.35365C5.58753 1.45102 7.25508 0.969238 8.96094 0.969238C10.6668 0.969238 12.3344 1.45102 13.7527 2.35365C15.1711 3.25628 16.2766 4.53922 16.9294 6.04025C17.5822 7.54127 17.753 9.19296 17.4202 10.7864C17.0874 12.3799 16.266 13.8436 15.0598 14.9925L8.96094 20.8011ZM8.96094 11.0093C9.46927 11.0093 9.95678 10.817 10.3162 10.4746C10.6757 10.1323 10.8776 9.66795 10.8776 9.18381C10.8776 8.69966 10.6757 8.23534 10.3162 7.893C9.95678 7.55066 9.46927 7.35833 8.96094 7.35833C8.45261 7.35833 7.9651 7.55066 7.60565 7.893C7.24621 8.23534 7.04427 8.69966 7.04427 9.18381C7.04427 9.66795 7.24621 10.1323 7.60565 10.4746C7.9651 10.817 8.45261 11.0093 8.96094 11.0093ZM8.96094 12.8348C7.94428 12.8348 6.96925 12.4501 6.25037 11.7654C5.53148 11.0807 5.12761 10.1521 5.12761 9.18381C5.12761 8.21552 5.53148 7.28688 6.25037 6.60219C6.96925 5.91751 7.94428 5.53286 8.96094 5.53286C9.9776 5.53286 10.9526 5.91751 11.6715 6.60219C12.3904 7.28688 12.7943 8.21552 12.7943 9.18381C12.7943 10.1521 12.3904 11.0807 11.6715 11.7654C10.9526 12.4501 9.9776 12.8348 8.96094 12.8348Z" fill="#878787"/>
</svg>
