<svg width="18" height="19" viewBox="0 0 18 19" fill="none" xmlns="http://www.w3.org/2000/svg">
<path d="M7.5 12.9678H4.6575C2.13 12.9678 1.5 12.3378 1.5 9.81033V5.31033C1.5 2.78283 2.13 2.15283 4.6575 2.15283H12.555C15.0825 2.15283 15.7125 2.78283 15.7125 5.31033M7.5 16.3578V12.9678M1.5 9.96783H7.5M5.055 16.3578H7.5" stroke="#3B618B" stroke-linecap="round" stroke-linejoin="round"/>
<path d="M16.5 9.85525V14.1378C16.5 15.9153 16.0575 16.3578 14.28 16.3578H11.6175C9.84002 16.3578 9.39752 15.9153 9.39752 14.1378V9.85525C9.39752 8.07775 9.84002 7.63525 11.6175 7.63525H14.28C16.0575 7.63525 16.5 8.07775 16.5 9.85525Z" stroke="#3B618B" stroke-linecap="round" stroke-linejoin="round"/>
<path d="M12.933 13.9429H12.9405" stroke="#3B618B" stroke-width="2" stroke-linecap="round" stroke-linejoin="round"/>
</svg>
