<svg id="SvgjsSvg1001" width="288" height="288" xmlns="http://www.w3.org/2000/svg" version="1.1" xmlns:xlink="http://www.w3.org/1999/xlink" xmlns:svgjs="http://svgjs.com/svgjs"><defs id="SvgjsDefs1002"></defs><g id="SvgjsG1008"><svg xmlns="http://www.w3.org/2000/svg" fill="none" viewBox="0 0 35 35" width="288" height="288"><path stroke="#878787" stroke-linecap="round" stroke-linejoin="round" stroke-width="2" d="M12.4976 22.269L22.0351 12.7315M13.0955 15.1231C13.5712 15.1231 14.0275 14.9342 14.3639 14.5978C14.7003 14.2614 14.8893 13.8051 14.8893 13.3294C14.8893 12.8537 14.7003 12.3974 14.3639 12.061C14.0275 11.7246 13.5712 11.5356 13.0955 11.5356C12.6198 11.5356 12.1635 11.7246 11.8271 12.061C11.4907 12.3974 11.3018 12.8537 11.3018 13.3294C11.3018 13.8051 11.4907 14.2614 11.8271 14.5978C12.1635 14.9342 12.6198 15.1231 13.0955 15.1231V15.1231ZM22.633 23.4648C23.1087 23.4648 23.565 23.2758 23.9014 22.9394C24.2378 22.603 24.4268 22.1468 24.4268 21.6711C24.4268 21.1953 24.2378 20.7391 23.9014 20.4027C23.565 20.0663 23.1087 19.8773 22.633 19.8773C22.1573 19.8773 21.701 20.0663 21.3646 20.4027C21.0282 20.7391 20.8393 21.1953 20.8393 21.6711C20.8393 22.1468 21.0282 22.603 21.3646 22.9394C21.701 23.2758 22.1573 23.4648 22.633 23.4648V23.4648Z" class="colorStroke3B618B svgStroke"></path><path stroke="#878787" stroke-linecap="round" stroke-linejoin="round" stroke-width="2" d="M17.5003 32.0832C25.5547 32.0832 32.0837 25.5542 32.0837 17.4998C32.0837 9.44546 25.5547 2.9165 17.5003 2.9165C9.44595 2.9165 2.91699 9.44546 2.91699 17.4998C2.91699 25.5542 9.44595 32.0832 17.5003 32.0832Z" class="colorStroke3B618B svgStroke"></path></svg></g></svg>