<svg width="20" height="21" viewBox="0 0 20 21" fill="none" xmlns="http://www.w3.org/2000/svg">
<g clip-path="url(#clip0_694_23364)">
<path d="M13.6749 3.33621C15.2916 3.33621 16.5916 4.64455 16.5916 6.25288C16.5916 7.82788 15.3416 9.11121 13.7833 9.16955C13.7113 9.16121 13.6386 9.16121 13.5666 9.16955M15.2833 16.6695C15.8833 16.5445 16.4499 16.3029 16.9166 15.9445C18.2166 14.9695 18.2166 13.3612 16.9166 12.3862C16.4583 12.0362 15.8999 11.8029 15.3083 11.6695M7.63327 9.06121C7.54993 9.05288 7.44993 9.05288 7.35827 9.06121C6.40177 9.02874 5.49547 8.62524 4.83129 7.93618C4.16712 7.24712 3.79722 6.32659 3.79993 5.36955C3.79993 3.32788 5.44993 1.66955 7.49993 1.66955C8.48013 1.65187 9.4272 2.02429 10.1328 2.70489C10.8384 3.38549 11.2448 4.31852 11.2624 5.29871C11.2801 6.27891 10.9077 7.22598 10.2271 7.93159C9.54649 8.6372 8.61346 9.04353 7.63327 9.06121ZM3.4666 12.1362C1.44993 13.4862 1.44993 15.6862 3.4666 17.0279C5.75827 18.5612 9.5166 18.5612 11.8083 17.0279C13.8249 15.6779 13.8249 13.4779 11.8083 12.1362C9.52494 10.6112 5.7666 10.6112 3.4666 12.1362V12.1362Z" stroke="#3B618B" stroke-width="1.5" stroke-linecap="round" stroke-linejoin="round"/>
</g>
<defs>
<clipPath id="clip0_694_23364">
<rect width="20" height="20" fill="white" transform="translate(0 0.00292969)"/>
</clipPath>
</defs>
</svg>
