<svg width="15" height="13" viewBox="0 0 15 13" fill="none" xmlns="http://www.w3.org/2000/svg">
<path d="M7.20833 8.91683H5.79167C4.62972 8.91639 3.48975 9.23356 2.49499 9.83405C1.50024 10.4346 0.688551 11.2955 0.147668 12.3239C0.132464 12.133 0.124903 11.9416 0.125001 11.7502C0.125001 7.83804 3.29621 4.66683 7.20833 4.66683V0.770996L14.6458 6.79183L7.20833 12.8127V8.91683ZM5.79167 7.50016H8.625V9.84333L12.394 6.79183L8.625 3.74033V6.0835H7.20833C6.39393 6.08258 5.58893 6.25762 4.84844 6.59663C4.10795 6.93564 3.44943 7.43062 2.91796 8.0477C3.83264 7.68519 4.80777 7.4994 5.79167 7.50016Z" fill="#434343"/>
</svg>
