<svg width="22" height="22" viewBox="0 0 22 22" fill="none" xmlns="http://www.w3.org/2000/svg">
<g clip-path="url(#clip0_1419_29027)">
<path d="M21.5785 5.45528C21.4588 5.00497 21.223 4.59399 20.8946 4.26347C20.5662 3.93295 20.1567 3.69448 19.7072 3.57193C18.0523 3.12695 11.4378 3.12695 11.4378 3.12695C11.4378 3.12695 4.82323 3.12695 3.16839 3.57193C2.71885 3.69448 2.30939 3.93295 1.98098 4.26347C1.65257 4.59399 1.41673 5.00497 1.29707 5.45528C0.854492 7.11734 0.854492 10.5834 0.854492 10.5834C0.854492 10.5834 0.854492 14.0494 1.29707 15.7115C1.41673 16.1618 1.65257 16.5727 1.98098 16.9033C2.30939 17.2338 2.71885 17.4722 3.16839 17.5948C4.82323 18.0398 11.4378 18.0398 11.4378 18.0398C11.4378 18.0398 18.0523 18.0398 19.7072 17.5948C20.1567 17.4722 20.5662 17.2338 20.8946 16.9033C21.223 16.5727 21.4588 16.1618 21.5785 15.7115C22.0211 14.0494 22.0211 10.5834 22.0211 10.5834C22.0211 10.5834 22.0211 7.11734 21.5785 5.45528Z" fill="#FF0302"/>
<path d="M9.27344 13.7307V7.43604L14.8056 10.5834L9.27344 13.7307Z" fill="#FEFEFE"/>
</g>
<defs>
<clipPath id="clip0_1419_29027">
<rect width="21.1666" height="21.1666" fill="white" transform="translate(0.833984)"/>
</clipPath>
</defs>
</svg>
